<svg width="22" height="23" viewBox="0 0 22 23" fill="none" xmlns="http://www.w3.org/2000/svg">
<path d="M21.0833 14.2505H18.5753C18.3789 13.5264 17.9496 12.8871 17.3537 12.4313C16.7577 11.9755 16.0283 11.7285 15.2781 11.7285C14.5278 11.7285 13.7984 11.9755 13.2025 12.4313C12.6066 12.8871 12.1773 13.5264 11.9808 14.2505H0.916667C0.673552 14.2505 0.440394 14.3471 0.268485 14.519C0.0965771 14.6909 0 14.924 0 15.1671C0 15.4103 0.0965771 15.6434 0.268485 15.8153C0.440394 15.9872 0.673552 16.0838 0.916667 16.0838H11.9808C12.1773 16.8079 12.6066 17.4472 13.2025 17.903C13.7984 18.3588 14.5278 18.6058 15.2781 18.6058C16.0283 18.6058 16.7577 18.3588 17.3537 17.903C17.9496 17.4472 18.3789 16.8079 18.5753 16.0838H21.0833C21.3264 16.0838 21.5596 15.9872 21.7315 15.8153C21.9034 15.6434 22 15.4103 22 15.1671C22 14.924 21.9034 14.6909 21.7315 14.519C21.5596 14.3471 21.3264 14.2505 21.0833 14.2505ZM15.2781 16.7713C14.9608 16.7713 14.6507 16.6772 14.3869 16.501C14.1231 16.3247 13.9174 16.0742 13.796 15.781C13.6746 15.4879 13.6428 15.1654 13.7047 14.8542C13.7666 14.543 13.9194 14.2572 14.1438 14.0328C14.3681 13.8085 14.6539 13.6557 14.9651 13.5938C15.2763 13.5319 15.5988 13.5637 15.892 13.6851C16.1851 13.8065 16.4356 14.0121 16.6119 14.2759C16.7882 14.5397 16.8822 14.8499 16.8822 15.1671C16.8818 15.5924 16.7126 16.0002 16.4119 16.3009C16.1111 16.6017 15.7034 16.7708 15.2781 16.7713Z" fill="currentColor"/>
<path d="M0.916667 8.52091H3.42467C3.62142 9.24483 4.05091 9.88389 4.64688 10.3395C5.24286 10.7951 5.97219 11.042 6.72237 11.042C7.47256 11.042 8.20189 10.7951 8.79787 10.3395C9.39384 9.88389 9.82333 9.24483 10.0201 8.52091H21.0833C21.3264 8.52091 21.5596 8.42433 21.7315 8.25242C21.9034 8.08051 22 7.84736 22 7.60424C22 7.36113 21.9034 7.12797 21.7315 6.95606C21.5596 6.78415 21.3264 6.68757 21.0833 6.68757H10.0201C9.82333 5.96365 9.39384 5.32459 8.79787 4.86897C8.20189 4.41335 7.47256 4.1665 6.72237 4.1665C5.97219 4.1665 5.24286 4.41335 4.64688 4.86897C4.05091 5.32459 3.62142 5.96365 3.42467 6.68757H0.916667C0.673552 6.68757 0.440394 6.78415 0.268485 6.95606C0.0965771 7.12797 0 7.36113 0 7.60424C0 7.84736 0.0965771 8.08051 0.268485 8.25242C0.440394 8.42433 0.673552 8.52091 0.916667 8.52091ZM6.72192 6.00007C7.03919 6.00007 7.34934 6.09416 7.61314 6.27043C7.87695 6.44669 8.08256 6.69723 8.20397 6.99035C8.32539 7.28348 8.35716 7.60602 8.29526 7.9172C8.23336 8.22838 8.08058 8.51421 7.85623 8.73856C7.63189 8.9629 7.34605 9.11569 7.03487 9.17758C6.7237 9.23948 6.40115 9.20771 6.10803 9.0863C5.81491 8.96488 5.56437 8.75927 5.3881 8.49547C5.21183 8.23166 5.11775 7.92151 5.11775 7.60424C5.11824 7.17894 5.2874 6.77119 5.58814 6.47046C5.88887 6.16973 6.29661 6.00056 6.72192 6.00007Z" fill="currentColor"/>
</svg>
