<svg width="24" height="25" viewBox="0 0 24 25" fill="none" xmlns="http://www.w3.org/2000/svg">
<path d="M17.8101 7.82657C16.4301 7.77657 15.3301 6.64657 15.3301 5.24657C15.3301 3.81657 16.4801 2.66656 17.9101 2.66656C19.3401 2.66656 20.4901 3.82657 20.4901 5.24657C20.4801 6.64657 19.3801 7.77657 18.0001 7.82657C17.9401 7.81657 17.8701 7.81657 17.8101 7.82657Z" stroke="currentColor" stroke-width="1.5" stroke-linecap="round" stroke-linejoin="round"/>
<path d="M16.9699 15.1066C18.3399 15.3366 19.8499 15.0966 20.9099 14.3866C22.3199 13.4466 22.3199 11.9066 20.9099 10.9666C19.8399 10.2566 18.3099 10.0166 16.9399 10.2566" stroke="currentColor" stroke-width="1.5" stroke-linecap="round" stroke-linejoin="round"/>
<path d="M6.15998 7.82657C7.53998 7.77657 8.63998 6.64657 8.63998 5.24657C8.63998 3.81657 7.48998 2.66656 6.05998 2.66656C4.62998 2.66656 3.47998 3.82657 3.47998 5.24657C3.48998 6.64657 4.58998 7.77657 5.96998 7.82657C6.02998 7.81657 6.09998 7.81657 6.15998 7.82657Z" stroke="currentColor" stroke-width="1.5" stroke-linecap="round" stroke-linejoin="round"/>
<path d="M6.99994 15.1066C5.62994 15.3366 4.11994 15.0966 3.05994 14.3866C1.64994 13.4466 1.64994 11.9066 3.05994 10.9666C4.12994 10.2566 5.65994 10.0166 7.02994 10.2566" stroke="currentColor" stroke-width="1.5" stroke-linecap="round" stroke-linejoin="round"/>
<path d="M11.8096 15.2965C10.4296 15.2465 9.32959 14.1165 9.32959 12.7165C9.32959 11.2865 10.4796 10.1365 11.9096 10.1365C13.3396 10.1365 14.4896 11.2965 14.4896 12.7165C14.4796 14.1165 13.3796 15.2565 11.9996 15.2965C11.9396 15.2865 11.8696 15.2865 11.8096 15.2965Z" stroke="currentColor" stroke-width="1.5" stroke-linecap="round" stroke-linejoin="round"/>
<path d="M9.08973 21.8665C10.6897 22.9365 13.3097 22.9365 14.9097 21.8665C16.3197 20.9265 16.3197 19.3866 14.9097 18.4466C13.3197 17.3866 10.6897 17.3866 9.08973 18.4466C7.67973 19.3866 7.67973 20.9265 9.08973 21.8665Z" stroke="currentColor" stroke-width="1.5" stroke-linecap="round" stroke-linejoin="round"/>
</svg>
