<svg width="24" height="25" viewBox="0 0 24 25" fill="none" xmlns="http://www.w3.org/2000/svg">
<path d="M6.02009 9.57648V12.4665C6.02009 13.0765 5.76009 14.0065 5.45009 14.5265L4.30009 16.4365C3.59009 17.6165 4.08009 18.9265 5.38009 19.3665C9.69009 20.8065 14.3401 20.8065 18.6501 19.3665C19.8601 18.9665 20.3901 17.5365 19.7301 16.4365L18.5801 14.5265C18.2801 14.0065 18.0201 13.0765 18.0201 12.4665V9.57648C18.0201 6.27648 15.3201 3.57648 12.0201 3.57648C8.71009 3.57648 6.02009 6.26648 6.02009 9.57648Z" stroke="currentColor" stroke-width="1.5" stroke-linecap="round"/>
<path d="M12.9099 3.66651C11.9499 3.54651 11.0299 3.61651 10.1699 3.86651C10.4599 3.12651 11.1799 2.60651 12.0199 2.60651C12.8599 2.60651 13.5799 3.12651 13.8699 3.86651C13.5599 3.77651 13.2399 3.70651 12.9099 3.66651Z" stroke="currentColor" stroke-width="1.5" stroke-linecap="round" stroke-linejoin="round"/>
<path d="M15.02 19.7266C15.02 21.3766 13.67 22.7266 12.02 22.7266C11.2 22.7266 10.44 22.3866 9.90002 21.8466C9.36002 21.3066 9.02002 20.5466 9.02002 19.7266" stroke="currentColor" stroke-width="1.5"/>
</svg>
