<svg width="24" height="25" viewBox="0 0 24 25" fill="none" xmlns="http://www.w3.org/2000/svg">
<path fill-rule="evenodd" clip-rule="evenodd" d="M16.5249 2.5H16.5932C17.477 2.49999 18.1897 2.49999 18.7635 2.55454C19.3552 2.6108 19.8707 2.72996 20.3343 3.01405C20.8037 3.30168 21.1983 3.69632 21.486 4.1657C21.77 4.62929 21.8892 5.14482 21.9455 5.73653C22 6.3103 22 7.02304 22 7.90683V7.97517C22 8.55587 22 9.04048 21.9626 9.4341C21.9235 9.84559 21.8386 10.2291 21.623 10.5808C21.4121 10.925 21.1227 11.2144 20.7785 11.4254C20.4267 11.6409 20.0433 11.7258 19.6318 11.7649C19.2382 11.8024 18.7535 11.8023 18.1728 11.8023H17.0679C16.2321 11.8024 15.5352 11.8024 14.9819 11.728C14.3979 11.6495 13.8706 11.4768 13.4469 11.0531C13.0232 10.6294 12.8505 10.1021 12.772 9.51812C12.6976 8.96484 12.6976 8.26789 12.6977 7.43209V6.32725C12.6977 5.74654 12.6976 5.26185 12.7351 4.86823C12.7742 4.45674 12.8591 4.07325 13.0746 3.72152C13.2856 3.37731 13.575 3.0879 13.9192 2.87697C14.2709 2.66142 14.6544 2.57653 15.0659 2.5374C15.4595 2.49998 15.9442 2.49999 16.5249 2.5ZM17.3488 8.31395C16.8694 8.31395 16.6297 8.31395 16.4604 8.19385C16.4007 8.15148 16.3485 8.09933 16.3061 8.0396C16.186 7.87034 16.186 7.63061 16.186 7.15117C16.186 6.67173 16.186 6.43199 16.3061 6.26273C16.3485 6.203 16.4007 6.15085 16.4604 6.10847C16.6297 5.98837 16.8694 5.98837 17.3488 5.98837C17.8283 5.98837 18.068 5.98837 18.2373 6.10847C18.297 6.15085 18.3491 6.203 18.3915 6.26273C18.5116 6.43199 18.5116 6.67171 18.5116 7.15116C18.5116 7.63061 18.5116 7.87034 18.3915 8.0396C18.3491 8.09933 18.297 8.15148 18.2373 8.19385C18.068 8.31395 17.8283 8.31395 17.3488 8.31395Z" fill="#003C96"/>
<path fill-rule="evenodd" clip-rule="evenodd" d="M10.0808 2.87697C9.72907 2.66142 9.34559 2.57653 8.9341 2.5374C8.54047 2.49998 8.05583 2.49999 7.4751 2.5H7.40684C6.52307 2.49999 5.81029 2.49999 5.23653 2.55454C4.64482 2.6108 4.12929 2.72996 3.6657 3.01405C3.19632 3.30168 2.80168 3.69632 2.51405 4.1657C2.22996 4.62929 2.1108 5.14482 2.05454 5.73653C1.99999 6.31029 1.99999 7.02302 2 7.90679V7.97506C1.99999 8.55579 1.99998 9.04047 2.0374 9.4341C2.07653 9.84559 2.16142 10.2291 2.37697 10.5808C2.5879 10.925 2.87731 11.2144 3.22152 11.4254C3.57325 11.6409 3.95674 11.7258 4.36823 11.7649C4.76183 11.8024 5.24643 11.8023 5.82711 11.8023H6.93209C7.76787 11.8024 8.46484 11.8024 9.01812 11.728C9.60212 11.6495 10.1294 11.4768 10.5531 11.0531C10.9768 10.6294 11.1495 10.1021 11.228 9.51812C11.3024 8.96484 11.3024 8.2679 11.3023 7.43212V6.32726C11.3023 5.74658 11.3024 5.26183 11.2649 4.86823C11.2258 4.45674 11.1409 4.07325 10.9254 3.72152C10.7144 3.37731 10.425 3.0879 10.0808 2.87697ZM5.76273 8.19385C5.93199 8.31395 6.17171 8.31395 6.65116 8.31395C7.13061 8.31395 7.37034 8.31395 7.5396 8.19385C7.59933 8.15148 7.65148 8.09933 7.69385 8.0396C7.81395 7.87034 7.81395 7.63061 7.81395 7.15116C7.81395 6.67171 7.81395 6.43199 7.69385 6.26273C7.65148 6.203 7.59933 6.15085 7.5396 6.10847C7.37034 5.98837 7.13061 5.98837 6.65116 5.98837C6.17171 5.98837 5.93199 5.98837 5.76273 6.10847C5.703 6.15085 5.65085 6.203 5.60847 6.26273C5.48837 6.43199 5.48837 6.67171 5.48837 7.15116C5.48837 7.63061 5.48837 7.87034 5.60847 8.0396C5.65085 8.09933 5.703 8.15148 5.76273 8.19385Z" fill="#003C96"/>
<path fill-rule="evenodd" clip-rule="evenodd" d="M9.01812 13.2721C9.60212 13.3506 10.1294 13.5233 10.5531 13.947C10.9768 14.3707 11.1495 14.898 11.228 15.482C11.3024 16.0353 11.3024 16.7322 11.3023 17.568V18.6729C11.3023 19.2536 11.3024 19.7383 11.2649 20.1319C11.2258 20.5434 11.1409 20.9268 10.9254 21.2786C10.7144 21.6228 10.425 21.9122 10.0808 22.1231C9.72907 22.3387 9.34559 22.4236 8.9341 22.4627C8.54048 22.5001 8.05577 22.5001 7.47507 22.5001H7.40683C6.52304 22.5001 5.8103 22.5001 5.23653 22.4456C4.64482 22.3893 4.12929 22.2701 3.6657 21.9861C3.19632 21.6984 2.80168 21.3038 2.51405 20.8344C2.22996 20.3708 2.1108 19.8553 2.05454 19.2636C1.99999 18.6898 1.99999 17.9771 2 17.0933V17.025C1.99999 16.4443 1.99998 15.9596 2.0374 15.566C2.07653 15.1545 2.16142 14.771 2.37697 14.4193C2.5879 14.0751 2.87731 13.7857 3.22152 13.5747C3.57325 13.3592 3.95674 13.2743 4.36823 13.2352C4.76184 13.1977 5.24648 13.1978 5.82717 13.1978H6.93209C7.76789 13.1977 8.46484 13.1977 9.01812 13.2721ZM6.65116 19.0117C6.17171 19.0117 5.93199 19.0117 5.76273 18.8916C5.703 18.8492 5.65085 18.7971 5.60847 18.7374C5.48837 18.5681 5.48837 18.3284 5.48837 17.8489C5.48837 17.3695 5.48837 17.1298 5.60847 16.9605C5.65085 16.9008 5.703 16.8486 5.76273 16.8062C5.93199 16.6861 6.17171 16.6861 6.65115 16.6861C7.13059 16.6861 7.37034 16.6861 7.5396 16.8062C7.59933 16.8486 7.65148 16.9008 7.69385 16.9605C7.81395 17.1298 7.81395 17.3695 7.81395 17.8489C7.81395 18.3284 7.81395 18.5681 7.69385 18.7374C7.65148 18.7971 7.59933 18.8492 7.5396 18.8916C7.37034 19.0117 7.13061 19.0117 6.65116 19.0117Z" fill="#003C96"/>
<path d="M12.6977 17.1156V17.1513H14.093C14.093 16.4835 14.0939 16.0352 14.1286 15.6934C14.1622 15.3633 14.2216 15.2108 14.289 15.1099C14.3738 14.9829 14.4828 14.8739 14.6098 14.7891C14.7107 14.7217 14.8632 14.6623 15.1933 14.6287C15.5351 14.594 15.9834 14.5931 16.6512 14.5931H18.5116V13.1978H16.6155C15.9926 13.1978 15.4729 13.1977 15.0521 13.2405C14.6117 13.2854 14.203 13.3828 13.8346 13.6289C13.5553 13.8155 13.3154 14.0554 13.1288 14.3347C12.8827 14.7031 12.7853 15.1118 12.7404 15.5522C12.6976 15.973 12.6977 16.4927 12.6977 17.1156Z" fill="#003C96"/>
<path d="M22 19.0352V19.0117H20.6046C20.6046 19.4547 20.6043 19.752 20.5886 19.9822C20.5733 20.2061 20.5459 20.3152 20.5161 20.3869C20.3981 20.6719 20.1718 20.8982 19.8868 21.0162C19.8151 21.046 19.706 21.0734 19.4821 21.0887C19.2519 21.1044 18.9546 21.1047 18.5116 21.1047H16.6512V22.5001H18.5351C18.9486 22.5001 19.2937 22.5001 19.5771 22.4808C19.8721 22.4607 20.1507 22.4173 20.4208 22.3054C21.0476 22.0457 21.5456 21.5477 21.8053 20.9209C21.9172 20.6508 21.9606 20.3722 21.9807 20.0772C22 19.7938 22 19.4487 22 19.0352Z" fill="#003C96"/>
<path d="M14.093 21.8024C14.093 22.1877 13.7807 22.5001 13.3953 22.5001C13.01 22.5001 12.6977 22.1877 12.6977 21.8024V19.0117H14.093V21.8024Z" fill="#003C96"/>
<path d="M21.3023 13.1978C20.917 13.1978 20.6046 13.5101 20.6046 13.8954V17.1513H22V13.8954C22 13.5101 21.6876 13.1978 21.3023 13.1978Z" fill="#003C96"/>
<path d="M16.0761 17.1173C16 17.3011 16 17.5341 16 18C16 18.4659 16 18.6989 16.0761 18.8827C16.1776 19.1277 16.3723 19.3224 16.6173 19.4239C16.8011 19.5 17.0341 19.5 17.5 19.5C17.9659 19.5 18.1989 19.5 18.3827 19.4239C18.6277 19.3224 18.8224 19.1277 18.9239 18.8827C19 18.6989 19 18.4659 19 18C19 17.5341 19 17.3011 18.9239 17.1173C18.8224 16.8723 18.6277 16.6776 18.3827 16.5761C18.1989 16.5 17.9659 16.5 17.5 16.5C17.0341 16.5 16.8011 16.5 16.6173 16.5761C16.3723 16.6776 16.1776 16.8723 16.0761 17.1173Z" fill="#003C96"/>
</svg>
